name C:\Users\u0101727\Documents\MyRepositories\upper-imu-dc\Results\main_tracking\Case_30\kinematics.mot
datacolumns 43
datarows 4
range 1.67000000 1.70000000
endheader 
time	clav_prot	clav_elev	scapula_abduction	scapula_elevation	scapula_upward_rot	scapula_winging	plane_elv	shoulder_elv	axial_rot	TrapeziusScapula_M/activation	TrapeziusScapula_S/activation	TrapeziusScapula_I/activation	TrapeziusClavicle_S/activation	SerratusAnterior_I/activation	SerratusAnterior_M/activation	SerratusAnterior_S/activation	Rhomboideus_S/activation	Rhomboideus_I/activation	LevatorScapulae/activation	Coracobrachialis/activation	DeltoideusClavicle_A/activation	DeltoideusScapula_P/activation	DeltoideusScapula_M/activation	LatissimusDorsi_S/activation	LatissimusDorsi_M/activation	LatissimusDorsi_I/activation	PectoralisMajorClavicle_S/activation	PectoralisMajorThorax_I/activation	PectoralisMajorThorax_M/activation	TeresMajor/activation	Infraspinatus_I/activation	Infraspinatus_S/activation	PectoralisMinor/activation	TeresMinor/activation	Subscapularis_S/activation	Subscapularis_M/activation	Subscapularis_I/activation	Supraspinatus_P/activation	Supraspinatus_A/activation	TRIlong/activation	BIC_long/activation	BIC_brevis/activation	
          1.67000000	        -22.23006682	          6.78457031	         -8.28172011	          1.51051283	         24.36160899	          0.19607804	         70.92753869	         56.03015266	        -24.11952177	          0.07410250	          0.02462810	          0.01451678	          0.01001273	          0.01001207	          0.01001222	          0.01001267	          0.02565914	          0.01586624	          0.01001277	          0.01001265	          0.01000964	          0.01001385	          0.01000996	          0.01001284	          0.01001327	          0.01001308	          0.01001244	          0.01001345	          0.01001349	          0.01001455	          0.01004560	          0.01000000	          0.01001247	          0.01001273	          0.01000000	          0.01001273	          0.01001438	          0.01001042	          0.01001128	          0.01001784	          0.01001149	          0.01001328	
          1.68000000	        -22.26599608	          6.44201314	         -8.46336749	          1.33939075	         23.99602677	          0.32307584	         71.00000000	         56.19026534	        -24.42136477	          0.06464659	          0.02111154	          0.01470839	          0.01001060	          0.01001069	          0.01001052	          0.01001621	          0.02452680	          0.01712442	          0.01001231	          0.01001264	          0.01001053	          0.01001279	          0.01001157	          0.01001372	          0.01001403	          0.01001422	          0.01001175	          0.01001896	          0.01001536	          0.01001270	          0.01004354	          0.06358593	          0.01002432	          0.01001283	          0.01000000	          0.01001266	          0.01001283	          0.01001167	          0.01001201	          0.01001286	          0.01001218	          0.01001291	
          1.69000000	        -22.27171549	          6.06297529	         -8.61759223	          1.15697992	         23.57160622	          0.47243075	         70.90939252	         57.06504072	        -24.77935096	          0.06822626	          0.02105767	          0.01423748	          0.01001262	          0.01001385	          0.01001370	          0.01001182	          0.02546177	          0.01676268	          0.01001247	          0.01001261	          0.01001525	          0.01001186	          0.01001469	          0.01001257	          0.01001251	          0.01001250	          0.01001343	          0.01001107	          0.01001175	          0.01001162	          0.01001501	          0.05450223	          0.01001104	          0.01001263	          0.01000000	          0.01001257	          0.01001183	          0.01001412	          0.01001336	          0.01001065	          0.01001309	          0.01001256	
          1.70000000	        -22.26661214	          5.79589508	         -8.72243916	          1.03333495	         23.25486848	          0.58472116	         70.63691487	         58.51188790	        -25.08256247	          0.07523088	          0.02456229	          0.01376568	          0.01001248	          0.01001229	          0.01001242	          0.01001263	          0.02744441	          0.01632226	          0.01001270	          0.01001258	          0.01001804	          0.01001223	          0.01001414	          0.01001271	          0.01001249	          0.01001257	          0.01001235	          0.01001226	          0.01001226	          0.01001193	          0.01002067	          0.04671620	          0.01001242	          0.01001268	          0.01000000	          0.01001250	          0.01001187	          0.01001394	          0.01001348	          0.01001136	          0.01001348	          0.01001210	
